<?xml version="1.0" encoding="utf-8"?>
<!-- Generator: Adobe Illustrator 19.1.0, SVG Export Plug-In . SVG Version: 6.00 Build 0)  -->
<svg version="1.1" id="Layer_1" xmlns="http://www.w3.org/2000/svg" xmlns:xlink="http://www.w3.org/1999/xlink" x="0px" y="0px"
	 viewBox="0 0 190.5 41.4" style="enable-background:new 0 0 190.5 41.4;" xml:space="preserve">
<style type="text/css">
	.st0{fill:#F9CA62;}
	.st1{fill:#B2D93C;}
	.st2{fill:#31ACFF;}
	.st3{fill:#D0E1E2;}
	.st4{fill:#FFFFFF;}
	.st5{fill:#849699;}
</style>
<circle class="st0" cx="127.5" cy="20.4" r="17.4"/>
<g>
	<path class="st1" d="M4.4,18.6c0-1.8,0.3-3.4,0.9-4.8c0.6-1.4,1.4-2.7,2.4-3.7c1-1,2.3-1.8,3.7-2.4c1.4-0.6,3-0.8,4.7-0.8
		c1.7,0,3.3,0.2,4.7,0.8S23.4,9,24.5,10c1,1,1.8,2.2,2.4,3.7s0.9,3,0.9,4.8c0,1.7-0.3,3.3-0.9,4.7c-0.6,1.4-1.4,2.6-2.4,3.6
		c-1,1-2.3,1.8-3.7,2.4s-3,0.9-4.7,0.9c-1.7,0-3.3-0.3-4.7-0.8c-1.4-0.5-2.6-1.3-3.7-2.3c-1-1-1.8-2.2-2.4-3.6
		C4.6,21.9,4.4,20.3,4.4,18.6z M8.5,18.3c0,1.2,0.2,2.3,0.5,3.3c0.4,1,0.9,1.9,1.5,2.6c0.7,0.7,1.5,1.3,2.4,1.7
		c0.9,0.4,2,0.6,3.1,0.6s2.2-0.2,3.1-0.6c0.9-0.4,1.7-1,2.4-1.7c0.7-0.7,1.2-1.6,1.5-2.6c0.4-1,0.5-2.1,0.5-3.3
		c0-1.1-0.2-2.1-0.5-3.1c-0.4-1-0.9-1.8-1.5-2.5c-0.7-0.7-1.5-1.3-2.4-1.7s-2-0.6-3.1-0.6s-2.2,0.2-3.1,0.6s-1.7,1-2.4,1.7
		c-0.7,0.7-1.2,1.6-1.5,2.5C8.7,16.2,8.5,17.2,8.5,18.3z"/>
	<path class="st1" d="M30.1,26.1l8-8.4v-0.1h-7.6v-3h12.2V18l-8.1,8.6H43v3H30.1V26.1z"/>
	<path class="st2" d="M66.1,27.9c-2.7,1.5-5.8,2.2-9.1,2.2c-1.7,0-3.3-0.3-4.7-0.8c-1.4-0.5-2.6-1.3-3.7-2.3c-1-1-1.8-2.2-2.4-3.6
		c-0.6-1.4-0.9-3-0.9-4.7c0-1.8,0.3-3.4,0.9-4.8c0.6-1.4,1.4-2.7,2.4-3.7c1-1,2.3-1.8,3.7-2.4c1.4-0.6,3-0.8,4.7-0.8
		c1.7,0,3.3,0.2,4.7,0.6c1.5,0.4,2.8,1.1,4,2.2l-2.9,2.9c-0.7-0.7-1.6-1.2-2.6-1.6c-1-0.4-2.1-0.6-3.2-0.6c-1.1,0-2.2,0.2-3.1,0.6
		s-1.7,1-2.4,1.7c-0.7,0.7-1.2,1.6-1.5,2.5c-0.4,1-0.5,2-0.5,3.1c0,1.2,0.2,2.3,0.5,3.3c0.4,1,0.9,1.9,1.5,2.6
		c0.7,0.7,1.5,1.3,2.4,1.7c0.9,0.4,2,0.6,3.1,0.6c1,0,1.9-0.1,2.8-0.3c0.9-0.2,1.7-0.5,2.4-0.9v-5.2h-4.5v-3.6h8.4V27.9z"/>
	<path class="st2" d="M73.4,23.4c0.1,1.1,0.6,2,1.3,2.6c0.7,0.6,1.7,0.9,2.7,0.9c0.9,0,1.7-0.2,2.4-0.6c0.6-0.4,1.2-0.9,1.7-1.4
		l2.7,2c-0.9,1.1-1.8,1.8-2.9,2.3c-1.1,0.5-2.2,0.7-3.4,0.7c-1.1,0-2.2-0.2-3.2-0.6s-1.9-0.9-2.6-1.6c-0.7-0.7-1.3-1.5-1.7-2.5
		c-0.4-1-0.6-2-0.6-3.2c0-1.2,0.2-2.3,0.6-3.2c0.4-1,1-1.8,1.7-2.5c0.7-0.7,1.6-1.2,2.6-1.6s2.1-0.6,3.2-0.6c1,0,2,0.2,2.9,0.5
		c0.9,0.4,1.6,0.9,2.2,1.6s1.1,1.5,1.4,2.5c0.3,1,0.5,2.2,0.5,3.5v1H73.4z M81.1,20.6c0-1.1-0.4-2-1-2.6c-0.7-0.6-1.6-1-2.8-1
		c-1.1,0-2,0.3-2.7,1c-0.7,0.6-1.1,1.5-1.2,2.6H81.1z"/>
	<path class="st2" d="M86.6,17.7v-3.2h3.1v-4.3h3.7v4.3h4.1v3.2h-4.1v6.5c0,0.7,0.1,1.3,0.4,1.8c0.3,0.4,0.8,0.7,1.7,0.7
		c0.3,0,0.7,0,1.1-0.1c0.4-0.1,0.7-0.2,0.9-0.4v3.1c-0.4,0.2-0.9,0.3-1.4,0.4c-0.6,0.1-1.1,0.1-1.5,0.1c-1,0-1.8-0.1-2.4-0.3
		s-1.1-0.6-1.5-1c-0.4-0.4-0.6-1-0.7-1.7c-0.1-0.7-0.2-1.4-0.2-2.3v-6.9H86.6z"/>
	<path class="st2" d="M109.8,27.5L109.8,27.5c-0.6,0.9-1.3,1.5-2.2,1.9s-1.7,0.6-2.7,0.6c-0.7,0-1.4-0.1-2-0.3
		c-0.7-0.2-1.2-0.5-1.7-0.8s-0.9-0.8-1.2-1.4s-0.5-1.2-0.5-2c0-0.8,0.1-1.5,0.4-2.1c0.3-0.6,0.7-1,1.2-1.4c0.5-0.4,1.1-0.7,1.7-0.9
		c0.6-0.2,1.3-0.4,2-0.5c0.7-0.1,1.4-0.2,2.1-0.2c0.7,0,1.4,0,2,0h0.9v-0.4c0-0.9-0.3-1.6-1-2.1c-0.6-0.5-1.5-0.7-2.5-0.7
		c-0.8,0-1.5,0.1-2.2,0.4s-1.3,0.7-1.8,1.1l-2-2c0.8-0.9,1.8-1.5,2.9-1.8c1.1-0.4,2.3-0.6,3.4-0.6c1.1,0,2,0.1,2.7,0.4
		c0.7,0.2,1.3,0.5,1.8,0.9s0.8,0.8,1.1,1.3s0.4,1,0.6,1.5c0.1,0.5,0.2,1,0.2,1.4c0,0.5,0,0.9,0,1.2v8.6h-3.4V27.5z M109.6,22.8h-0.8
		c-0.5,0-1.1,0-1.7,0.1c-0.6,0-1.3,0.1-1.8,0.3c-0.6,0.2-1.1,0.4-1.4,0.7c-0.4,0.3-0.6,0.7-0.6,1.3c0,0.4,0.1,0.6,0.2,0.9
		c0.2,0.2,0.4,0.4,0.6,0.6c0.2,0.2,0.5,0.3,0.8,0.4c0.3,0.1,0.6,0.1,0.9,0.1c1.3,0,2.2-0.3,2.9-0.9c0.6-0.6,0.9-1.4,0.9-2.5V22.8z"
		/>
	<path class="st2" d="M115.2,14.6h4.1l3.2,10.5h0.1l3-10.5h4.1l3.2,10.5h0.1l3.1-10.5h3.8l-5.1,15H131l-3.6-10.2h-0.1l-3.1,10.2
		h-3.9L115.2,14.6z"/>
	<path class="st2" d="M151.3,27.5L151.3,27.5c-0.6,0.9-1.3,1.5-2.2,1.9s-1.7,0.6-2.7,0.6c-0.7,0-1.4-0.1-2-0.3
		c-0.7-0.2-1.2-0.5-1.7-0.8s-0.9-0.8-1.2-1.4s-0.5-1.2-0.5-2c0-0.8,0.1-1.5,0.4-2.1c0.3-0.6,0.7-1,1.2-1.4c0.5-0.4,1.1-0.7,1.7-0.9
		c0.6-0.2,1.3-0.4,2-0.5c0.7-0.1,1.4-0.2,2.1-0.2c0.7,0,1.4,0,2,0h0.9v-0.4c0-0.9-0.3-1.6-1-2.1c-0.6-0.5-1.5-0.7-2.5-0.7
		c-0.8,0-1.5,0.1-2.2,0.4s-1.3,0.7-1.8,1.1l-2-2c0.8-0.9,1.8-1.5,2.9-1.8c1.1-0.4,2.3-0.6,3.4-0.6c1.1,0,2,0.1,2.7,0.4
		c0.7,0.2,1.3,0.5,1.8,0.9s0.8,0.8,1.1,1.3s0.4,1,0.6,1.5c0.1,0.5,0.2,1,0.2,1.4c0,0.5,0,0.9,0,1.2v8.6h-3.4V27.5z M151.1,22.8h-0.8
		c-0.5,0-1.1,0-1.7,0.1c-0.6,0-1.3,0.1-1.8,0.3c-0.6,0.2-1.1,0.4-1.4,0.7c-0.4,0.3-0.6,0.7-0.6,1.3c0,0.4,0.1,0.6,0.2,0.9
		c0.2,0.2,0.4,0.4,0.6,0.6c0.2,0.2,0.5,0.3,0.8,0.4c0.3,0.1,0.6,0.1,0.9,0.1c1.3,0,2.2-0.3,2.9-0.9c0.6-0.6,0.9-1.4,0.9-2.5V22.8z"
		/>
	<path class="st2" d="M156.7,14.6h4.1l4.2,10.4h0.1l3.7-10.4h3.9l-7.1,18.2c-0.3,0.7-0.6,1.3-0.9,1.9c-0.3,0.5-0.7,1-1.1,1.3
		c-0.4,0.4-1,0.6-1.5,0.8c-0.6,0.2-1.3,0.3-2.1,0.3c-1,0-1.9-0.1-2.9-0.4l0.5-3.4c0.3,0.1,0.6,0.2,0.9,0.3c0.3,0.1,0.6,0.1,1,0.1
		c0.5,0,0.8,0,1.2-0.1c0.3-0.1,0.6-0.2,0.8-0.4c0.2-0.2,0.4-0.4,0.5-0.7c0.1-0.3,0.3-0.6,0.5-1l0.7-1.8L156.7,14.6z"/>
	<path class="st2" d="M182.9,18.7c-0.7-1-1.7-1.5-2.9-1.5c-0.5,0-1,0.1-1.5,0.4c-0.5,0.2-0.7,0.7-0.7,1.2c0,0.5,0.2,0.8,0.6,1
		c0.4,0.2,0.9,0.4,1.5,0.5c0.6,0.1,1.3,0.3,1.9,0.5c0.7,0.2,1.3,0.4,1.9,0.7c0.6,0.3,1.1,0.8,1.5,1.3c0.4,0.6,0.6,1.3,0.6,2.3
		c0,0.9-0.2,1.6-0.6,2.3c-0.4,0.6-0.9,1.1-1.5,1.5c-0.6,0.4-1.3,0.6-2.1,0.8s-1.5,0.2-2.3,0.2c-1.2,0-2.2-0.2-3.2-0.5
		c-1-0.3-1.8-0.9-2.6-1.8l2.5-2.3c0.5,0.5,1,1,1.5,1.3c0.5,0.3,1.2,0.5,2,0.5c0.3,0,0.6,0,0.8-0.1c0.3-0.1,0.6-0.2,0.8-0.3
		c0.2-0.1,0.5-0.3,0.6-0.5c0.2-0.2,0.2-0.5,0.2-0.8c0-0.5-0.2-0.9-0.6-1.2c-0.4-0.2-0.9-0.5-1.5-0.6s-1.3-0.3-1.9-0.4
		c-0.7-0.1-1.3-0.4-1.9-0.7c-0.6-0.3-1.1-0.7-1.5-1.3c-0.4-0.5-0.6-1.3-0.6-2.2c0-0.8,0.2-1.6,0.5-2.2c0.3-0.6,0.8-1.1,1.4-1.5
		c0.6-0.4,1.2-0.7,1.9-0.9s1.5-0.3,2.2-0.3c1,0,2,0.2,3,0.5c1,0.3,1.8,0.9,2.4,1.8L182.9,18.7z"/>
</g>
<polygon class="st3" points="127.4,35.6 127.4,19.2 133.9,35.6 "/>
<polygon class="st4" points="127.4,35.6 127.4,19.2 120.9,35.6 "/>
<path class="st5" d="M115.7,38.5c0,0-5.3-6.4-3.2-5.6c6.1,2.3,19.4,2.9,28,2.3c1.1-0.1-2.5,3.4-2.5,3.4L115.7,38.5z"/>
<g>
</g>
<g>
</g>
<g>
</g>
<g>
</g>
<g>
</g>
<g>
</g>
</svg>
